<?xml version="1.0" encoding="UTF-8" standalone="no"?>
<svg
   xmlns:dc="http://purl.org/dc/elements/1.1/"
   xmlns:cc="http://creativecommons.org/ns#"
   xmlns:rdf="http://www.w3.org/1999/02/22-rdf-syntax-ns#"
   xmlns:svg="http://www.w3.org/2000/svg"
   xmlns="http://www.w3.org/2000/svg"
   xmlns:sodipodi="http://sodipodi.sourceforge.net/DTD/sodipodi-0.dtd"
   xmlns:inkscape="http://www.inkscape.org/namespaces/inkscape"
   width="24"
   height="24"
   viewBox="0 0 24 24"
   fill="none"
   stroke="currentColor"
   stroke-width="2"
   stroke-linecap="round"
   stroke-linejoin="round"
   class="feather feather-download-cloud"
   version="1.1"
   id="svg3733"
   sodipodi:docname="logo.svg"
   inkscape:version="0.92.4 (5da689c313, 2019-01-14)">
  <metadata
     id="metadata3739">
    <rdf:RDF>
      <cc:Work
         rdf:about="">
        <dc:format>image/svg+xml</dc:format>
        <dc:type
           rdf:resource="http://purl.org/dc/dcmitype/StillImage" />
        <dc:title></dc:title>
      </cc:Work>
    </rdf:RDF>
  </metadata>
  <defs
     id="defs3737" />
  <sodipodi:namedview
     pagecolor="#ffffff"
     bordercolor="#666666"
     borderopacity="1"
     objecttolerance="10"
     gridtolerance="10"
     guidetolerance="10"
     inkscape:pageopacity="0"
     inkscape:pageshadow="2"
     inkscape:window-width="2560"
     inkscape:window-height="1377"
     id="namedview3735"
     showgrid="false"
     inkscape:zoom="50.333333"
     inkscape:cx="8.6225166"
     inkscape:cy="11.701987"
     inkscape:window-x="-8"
     inkscape:window-y="-8"
     inkscape:window-maximized="1"
     inkscape:current-layer="svg3733" />
  <path
     d="M20.88 18.09A5 5 0 0 0 18 9h-1.26A8 8 0 1 0 3 16.29"
     id="path3731"
     style="stroke:#f48120;stroke-opacity:1" />
  <g
     id="g3785"
     transform="matrix(0.55298758,0,0,0.55298758,3.8919568,9.8739261)"
     style="stroke:#244ba3;stroke-opacity:1">
    <path
       id="path3753"
       d="m 17.662252,10.377483 h 3 a 5,5 0 0 1 5,5 5,5 0 0 1 -5,5 h -3 m -6,0 H 8.6622517 a 5,5 0 0 1 -5,-5 5,5 0 0 1 5,-5 h 3.0000003"
       inkscape:connector-curvature="0"
       style="stroke:#244ba3;stroke-opacity:1" />
    <line
       id="line3755"
       y2="15.377483"
       x2="18.662252"
       y1="15.377483"
       x1="10.662251"
       style="stroke:#244ba3;stroke-opacity:1" />
  </g>
</svg>
